<?xml version="1.0" encoding="UTF-8"?>
<svg version="1.1" xmlns="http://www.w3.org/2000/svg" width="512" height="512">
<path d="M0 0 C0.515625 0.495 1.03125 0.99 1.5625 1.5 C3.53233282 2.60371901 3.53233282 2.60371901 5.7878418 2.89233398 C9.08393158 3.6141965 11.88020998 4.83735757 14.95703125 6.22265625 C16.15908203 6.76083984 17.36113281 7.29902344 18.59960938 7.85351562 C19.85812334 8.42306568 21.11658625 8.99272855 22.375 9.5625 C23.65278319 10.13653896 24.93077597 10.71011161 26.20898438 11.28320312 C29.32891527 12.6842287 32.44662718 14.08997798 35.5625 15.5 C35.5625 16.16 35.5625 16.82 35.5625 17.5 C36.573125 17.603125 37.58375 17.70625 38.625 17.8125 C42.77468208 18.53704767 45.77606263 19.72269266 49.5625 21.5 C49.5625 22.16 49.5625 22.82 49.5625 23.5 C52.5325 24.16 55.5025 24.82 58.5625 25.5 C58.5625 26.16 58.5625 26.82 58.5625 27.5 C59.84189453 27.74314941 61.12128906 27.98629883 62.43945312 28.23681641 C67.78564779 29.42991659 72.55690706 31.45477965 77.53125 33.7109375 C78.45160034 34.12034576 79.37195068 34.52975403 80.32019043 34.9515686 C83.2378484 36.25158718 86.15019595 37.56303818 89.0625 38.875 C91.01658423 39.74816353 92.97100863 40.62056619 94.92578125 41.4921875 C98.53141981 43.10127155 102.13508022 44.7146101 105.73632812 46.33349609 C110.33916393 48.40230532 114.94934426 50.45431928 119.5625 52.5 C119.5625 53.16 119.5625 53.82 119.5625 54.5 C120.51447266 54.57943848 121.46644531 54.65887695 122.44726562 54.74072266 C127.46802435 55.46621946 131.81937465 57.56401285 136.40625 59.6484375 C137.33417358 60.06163239 138.26209717 60.47482727 139.21813965 60.90054321 C142.17002034 62.21713463 145.11629564 63.54576204 148.0625 64.875 C150.0426023 65.76123587 152.02306775 66.64666085 154.00390625 67.53125 C157.64879575 69.15946464 161.29113255 70.79316878 164.93164062 72.43115234 C168.79123049 74.16342244 172.66814144 75.84746836 176.5625 77.5 C176.5625 78.16 176.5625 78.82 176.5625 79.5 C177.655625 79.603125 178.74875 79.70625 179.875 79.8125 C183.5243448 80.49288632 184.37418 80.73580631 186.5625 83.5 C187.2225 83.83 187.8825 84.16 188.5625 84.5 C188.8925 98.69 189.2225 112.88 189.5625 127.5 C193.8525 129.48 198.1425 131.46 202.5625 133.5 C202.5625 134.16 202.5625 134.82 202.5625 135.5 C203.57441406 135.60183594 204.58632813 135.70367187 205.62890625 135.80859375 C209.71085485 136.52607627 212.78144376 137.76072533 216.5 139.5625 C217.64339844 140.11035156 218.78679687 140.65820312 219.96484375 141.22265625 C220.82207031 141.64417969 221.67929687 142.06570312 222.5625 142.5 C222.5625 143.16 222.5625 143.82 222.5625 144.5 C223.2225 144.83 223.8825 145.16 224.5625 145.5 C224.5625 146.82 224.5625 148.14 224.5625 149.5 C219.75907427 151.64092944 214.95355044 153.77704907 210.14599609 155.90869141 C208.50998948 156.63490288 206.87456957 157.36243757 205.23974609 158.09130859 C202.89312376 159.13725609 200.54444957 160.17846507 198.1953125 161.21875 C197.46192657 161.54685669 196.72854065 161.87496338 195.97293091 162.2130127 C190.79024341 164.5 190.79024341 164.5 188.5625 164.5 C188.5625 229.18 188.5625 293.86 188.5625 360.5 C187.9025 360.83 187.2425 361.16 186.5625 361.5 C186.170625 361.995 185.77875 362.49 185.375 363 C182.6832336 365.22766874 179.96420548 365.17908439 176.5625 365.5 C176.5625 366.16 176.5625 366.82 176.5625 367.5 C176.04377823 367.729151 175.52505646 367.958302 174.99061584 368.19439697 C169.55545831 370.59546073 164.12036306 372.99666542 158.68530273 375.39794922 C156.66122993 376.29219056 154.63714164 377.18639686 152.61303711 378.08056641 C149.691202 379.37132538 146.76942396 380.66221346 143.84765625 381.953125 C142.95353531 382.34808167 142.05941437 382.74303833 141.13819885 383.14996338 C140.2779863 383.53005554 139.41777374 383.91014771 138.53149414 384.30175781 C137.29038376 384.84830017 137.29038376 384.84830017 136.02420044 385.40588379 C134.35454519 386.14797119 132.68966247 386.90087289 131.02926636 387.66345215 C130.23126617 388.02813599 129.43326599 388.39281982 128.61108398 388.76855469 C127.90410873 389.09587585 127.19713348 389.42319702 126.46873474 389.76043701 C124.0942063 390.68168418 122.08285042 390.82520651 119.5625 390.5 C119.5625 391.16 119.5625 391.82 119.5625 392.5 C111.91398234 395.93973103 104.26207799 399.37172274 96.60559082 402.79367065 C93.35030291 404.24937217 90.09675611 405.70865171 86.84814453 407.17919922 C83.46457809 408.71029461 80.07651641 410.23101497 76.6875 411.75 C75.66793213 412.21510986 74.64836426 412.68021973 73.59790039 413.15942383 C68.52430408 415.42075673 64.12023325 417.09749007 58.5625 417.5 C58.5625 418.16 58.5625 418.82 58.5625 419.5 C55.5925 420.16 52.6225 420.82 49.5625 421.5 C49.5625 422.16 49.5625 422.82 49.5625 423.5 C40.15247722 428.09225513 40.15247722 428.09225513 35.5625 427.5 C35.5625 428.16 35.5625 428.82 35.5625 429.5 C31.52943458 431.3634676 27.49093609 433.21443709 23.44702148 435.05419922 C22.07307792 435.68135338 20.70065687 436.31185451 19.32983398 436.94580078 C17.35534353 437.85820587 15.37563045 438.75830171 13.39453125 439.65625 C12.20577393 440.20087891 11.0170166 440.74550781 9.79223633 441.30664062 C6.75040339 442.43057134 4.75865253 442.77403121 1.5625 442.5 C1.5625 443.16 1.5625 443.82 1.5625 444.5 C-5.00152735 448.09915207 -11.45405986 447.8417946 -18.58984375 446.16796875 C-20.4375 445.5 -20.4375 445.5 -22.4375 443.5 C-24.37999596 442.40034493 -24.37999596 442.40034493 -26.5 442.1875 C-30.7312569 441.19720583 -34.51335818 439.33810565 -38.4375 437.5 C-38.4375 436.84 -38.4375 436.18 -38.4375 435.5 C-39.365625 435.438125 -40.29375 435.37625 -41.25 435.3125 C-46.71859031 434.56985193 -51.5324668 431.90373236 -56.4375 429.5 C-56.4375 428.84 -56.4375 428.18 -56.4375 427.5 C-57.42758057 427.40412598 -58.41766113 427.30825195 -59.43774414 427.20947266 C-63.79181248 426.58121365 -67.46054814 424.97795423 -71.43359375 423.1484375 C-72.18479996 422.81131744 -72.93600616 422.47419739 -73.7099762 422.12686157 C-76.1021644 421.0512057 -78.48863984 419.96351516 -80.875 418.875 C-82.44167972 418.1671325 -84.00873452 417.46009454 -85.57617188 416.75390625 C-87.90355872 415.7050483 -90.23058649 414.65546106 -92.55599976 413.60223389 C-100.15217981 410.16356913 -107.78969136 406.82194106 -115.4375 403.5 C-115.4375 402.84 -115.4375 402.18 -115.4375 401.5 C-116.87138062 401.37733765 -116.87138062 401.37733765 -118.33422852 401.25219727 C-123.27986483 400.53815044 -127.56543827 398.5074158 -132.08984375 396.46484375 C-132.98997696 396.06672989 -133.89011017 395.66861603 -134.81752014 395.25843811 C-137.67372029 393.9929509 -140.52435404 392.71544216 -143.375 391.4375 C-145.31800361 390.57406876 -147.26135954 389.71142988 -149.20507812 388.84960938 C-153.95333576 386.74222862 -158.69708941 384.62496868 -163.4375 382.5 C-163.4375 381.84 -163.4375 381.18 -163.4375 380.5 C-164.4174292 380.40702637 -165.3973584 380.31405273 -166.40698242 380.21826172 C-170.92284059 379.56679783 -174.78856266 377.87030603 -178.92578125 376.0078125 C-179.71019089 375.66120575 -180.49460052 375.314599 -181.30278015 374.95748901 C-182.94930533 374.22712935 -184.59388189 373.49236231 -186.23657227 372.75341797 C-188.75424309 371.62309504 -191.27977671 370.51193782 -193.80664062 369.40234375 C-195.40935816 368.6886307 -197.01158963 367.9738249 -198.61328125 367.2578125 C-199.36845535 366.92645294 -200.12362946 366.59509338 -200.90168762 366.25369263 C-204.42625061 364.65361797 -206.24512871 363.78855693 -208.4375 360.5 C-208.7675 360.5 -209.0975 360.5 -209.4375 360.5 C-209.4375 295.82 -209.4375 231.14 -209.4375 164.5 C-212.4075 163.51 -215.3775 162.52 -218.4375 161.5 C-220.71385786 160.56211579 -222.97689916 159.59099458 -225.22265625 158.58203125 C-226.41181641 158.05029297 -227.60097656 157.51855469 -228.82617188 156.97070312 C-230.05082355 156.41806248 -231.27543243 155.86532698 -232.5 155.3125 C-233.75958993 154.74765492 -235.0193544 154.18319889 -236.27929688 153.61914062 C-239.33376383 152.24989682 -242.38641809 150.87676603 -245.4375 149.5 C-245.4375 145.5 -245.4375 145.5 -243.4375 143.5 C-240.13697552 140.73238255 -236.63163609 139.10354274 -232.703125 137.36328125 C-230.95177246 136.58271362 -230.95177246 136.58271362 -229.16503906 135.78637695 C-227.68745117 135.13499756 -226.20986328 134.48361816 -224.6875 133.8125 C-217.63375 130.6878125 -217.63375 130.6878125 -210.4375 127.5 C-210.1075 113.31 -209.7775 99.12 -209.4375 84.5 C-208.7775 84.17 -208.1175 83.84 -207.4375 83.5 C-207.05561523 83.05736816 -206.67373047 82.61473633 -206.28027344 82.15869141 C-203.54276526 79.6946439 -200.29165523 78.42388307 -196.953125 76.9609375 C-196.21930603 76.63461334 -195.48548706 76.30828918 -194.72943115 75.97207642 C-193.17761788 75.28451181 -191.62420827 74.60054038 -190.06933594 73.91992188 C-187.70497024 72.88266427 -185.34847724 71.82888974 -182.9921875 70.7734375 C-181.47961522 70.10575375 -179.96660769 69.43905498 -178.453125 68.7734375 C-177.75495667 68.45990326 -177.05678833 68.14636902 -176.33746338 67.82333374 C-171.99916343 65.94336901 -168.1475737 64.96395223 -163.4375 64.5 C-163.4375 63.84 -163.4375 63.18 -163.4375 62.5 C-157.41098466 59.78108273 -151.37809951 57.07670828 -145.34057617 54.38232422 C-143.28764888 53.46410996 -141.23620022 52.54258233 -139.1862793 51.61767578 C-136.23869604 50.28844351 -133.28599251 48.97123607 -130.33203125 47.65625 C-129.41726517 47.24064819 -128.50249908 46.82504639 -127.56001282 46.39685059 C-126.69949814 46.0164563 -125.83898346 45.63606201 -124.95239258 45.24414062 C-124.19960526 44.90660767 -123.44681793 44.56907471 -122.67121887 44.22131348 C-120.1531776 43.40818649 -118.06732319 43.37074066 -115.4375 43.5 C-115.4375 42.84 -115.4375 42.18 -115.4375 41.5 C-75.59008789 23.79003906 -75.59008789 23.79003906 -72.97683716 22.63293457 C-71.27269894 21.87262707 -69.57289373 21.10253816 -67.87741089 20.32312012 C-67.07924957 19.95835571 -66.28108826 19.59359131 -65.45874023 19.21777344 C-64.75571274 18.89242615 -64.05268524 18.56707886 -63.32835388 18.23187256 C-60.96080222 17.3154897 -58.94921161 17.17590818 -56.4375 17.5 C-56.4375 16.84 -56.4375 16.18 -56.4375 15.5 C-54.38076547 14.48819502 -52.31684652 13.49098523 -50.25 12.5 C-49.10144531 11.943125 -47.95289063 11.38625 -46.76953125 10.8125 C-43.64659481 9.58236325 -41.73463518 9.20195388 -38.4375 9.5 C-38.4375 8.84 -38.4375 8.18 -38.4375 7.5 C-36.71406245 6.65488176 -34.98345947 5.82436646 -33.25 5 C-32.28707031 4.5359375 -31.32414063 4.071875 -30.33203125 3.59375 C-27.44827307 2.50407079 -25.48395139 2.27722476 -22.4375 2.5 C-22.4375 1.84 -22.4375 1.18 -22.4375 0.5 C-16.09400234 -3.3060986 -6.41273146 -3.94629628 0 0 Z " fill="#287BBB" transform="translate(266.4375,33.5)"/>
<path d="M0 0 C1.2603644 0.54232942 2.52096125 1.08411882 3.78173828 1.62548828 C5.21259638 2.27081473 6.64204382 2.9192751 8.0703125 3.5703125 C8.85173111 3.92349045 9.63314972 4.2766684 10.43824768 4.64054871 C12.12234849 5.40199494 13.805868 6.16472791 15.48886108 6.92861938 C19.99892316 8.97545797 24.51338618 11.01255164 29.02734375 13.05078125 C30.40805809 13.67465981 30.40805809 13.67465981 31.81666565 14.31114197 C40.75733248 18.34838857 49.71959978 22.33619688 58.6875 26.3125 C61.66028995 27.63120924 64.63294299 28.9502266 67.60546875 30.26953125 C68.31987122 30.58660034 69.03427368 30.90366943 69.77032471 31.23034668 C76.68821444 34.30244828 83.59498171 37.39907313 90.5 40.5 C101.88584432 45.61254498 113.28757532 50.68843773 124.69519043 55.75216675 C133.52742936 59.67307053 142.35581794 63.60232973 151.17578125 67.55078125 C152.02075668 67.9290506 152.86573212 68.30731995 153.73631287 68.697052 C157.79538007 70.51458407 161.85392257 72.333279 165.91186523 74.15332031 C175.58486826 78.48902374 185.28101668 82.76836456 195 87 C192.69747104 89.59246586 190.52257003 90.84917199 187.34960938 92.21386719 C186.40029541 92.62630676 185.45098145 93.03874634 184.47290039 93.46368408 C183.44028076 93.90363708 182.40766113 94.34359009 181.34375 94.796875 C180.26730225 95.26212585 179.19085449 95.72737671 178.08178711 96.20672607 C174.55742336 97.72797922 171.02877978 99.23902231 167.5 100.75 C165.0511649 101.80472459 162.60257613 102.86000329 160.15429688 103.91601562 C153.10703703 106.95375508 146.05402742 109.97801534 139 113 C137.30725899 113.72583525 135.61454687 114.45173791 133.921875 115.17773438 C128.44246663 117.52735849 122.96234343 119.87529488 117.47998047 122.21801758 C101.87285023 128.89115594 86.30920737 135.66474575 70.7409668 142.42797852 C68.47966031 143.41033135 66.21834851 144.39267196 63.95703125 145.375 C62.85068832 145.85561386 61.7443454 146.33622772 60.60447693 146.83140564 C53.74320648 149.8111957 46.87914096 152.78441608 40.01171875 155.75 C39.17153198 156.11287613 38.33134521 156.47575226 37.46569824 156.84962463 C33.65887386 158.49348703 29.85154973 160.13617761 26.04345703 161.77709961 C25.3669812 162.06927872 24.69050537 162.36145782 23.99353027 162.66249084 C22.67462264 163.23132847 21.35474029 163.79791235 20.03381348 164.36204529 C16.38431983 165.92949177 12.78267216 167.56900891 9.20068359 169.28564453 C8.39310104 169.66523819 7.58551849 170.04483185 6.75346375 170.43592834 C5.19346996 171.17135044 3.64065856 171.92227333 2.09675598 172.69090271 C-1.22009018 174.24009074 -3.17093341 175.14364592 -6.83789062 174.50830078 C-7.88138672 174.01056152 -8.92488281 173.51282227 -10 173 C-11.66227402 172.2966121 -13.32611385 171.59692008 -14.9909668 170.8996582 C-16.97816851 170.03593295 -18.96417957 169.16946498 -20.94921875 168.30078125 C-22.02142166 167.83411545 -23.09362457 167.36744965 -24.19831848 166.88664246 C-26.49840649 165.88530885 -28.79800772 164.88285651 -31.09716797 163.87939453 C-37.16016015 161.2333804 -43.22674043 158.59561567 -49.29296875 155.95703125 C-50.49311615 155.43476959 -51.69326355 154.91250793 -52.92977905 154.37442017 C-62.10586538 150.3831908 -71.29675366 146.42810744 -80.5 142.5 C-97.28011538 135.33316233 -114.0150095 128.06270444 -130.74926758 120.78955078 C-141.76817959 116.00129014 -152.79093765 111.22256867 -163.828125 106.4765625 C-164.84060806 106.04085937 -165.85309113 105.60515625 -166.89625549 105.15625 C-171.6525994 103.10951883 -176.4100374 101.06542074 -181.16967773 99.02636719 C-189.2264165 95.56555135 -197.24531189 92.10889284 -205 88 C-201.42749194 84.97256849 -197.37950342 83.26168892 -193.1171875 81.4375 C-191.93192474 80.92209152 -191.93192474 80.92209152 -190.72271729 80.39627075 C-189.00831475 79.65105624 -187.29294301 78.90806835 -185.57672119 78.16705322 C-180.93646181 76.16261632 -176.30417684 74.13993218 -171.671875 72.1171875 C-170.71084869 71.69782928 -169.74982239 71.27847107 -168.75967407 70.84640503 C-158.50693399 66.36336113 -148.31308548 61.75266992 -138.125 57.125 C-134.59258953 55.52182325 -131.05999754 53.91904676 -127.52734375 52.31640625 C-126.69083786 51.93683273 -125.85433197 51.55725922 -124.99247742 51.16618347 C-114.99662629 46.63333396 -104.96505364 42.18213181 -94.92871094 37.73974609 C-88.32389678 34.81571519 -81.72188137 31.88537774 -75.12060547 28.95336914 C-71.25644848 27.23712938 -67.39072564 25.52448511 -63.52392578 23.81420898 C-53.78573238 19.50106921 -44.08017426 15.13003533 -34.421875 10.640625 C-31.67988689 9.37467767 -28.93725842 8.11012838 -26.19442749 6.8460083 C-24.45136599 6.03736423 -22.71156584 5.22164964 -20.97525024 4.39862061 C-18.57577477 3.26141766 -16.16648843 2.14812227 -13.75390625 1.0390625 C-13.05283752 0.69852844 -12.3517688 0.35799438 -11.62945557 0.00714111 C-6.94028576 -2.11120245 -4.62930999 -2.16625808 0 0 Z " fill="#FDFEFE" transform="translate(261,92)"/>
<path d="M0 0 C5.53191454 1.75398217 10.82520491 3.70362747 16.09375 6.16015625 C16.74581924 6.46187744 17.39788849 6.76359863 18.06971741 7.07446289 C19.47751184 7.72588331 20.88443658 8.37918601 22.29055786 9.03421021 C26.16566833 10.83771367 30.04924587 12.62274638 33.93359375 14.40625 C34.75053207 14.78137222 35.5674704 15.15649445 36.40916443 15.54298401 C47.45652157 20.6009713 58.59067842 25.46262591 69.72998047 30.31396484 C71.44374986 31.06072333 73.15745454 31.80763033 74.87109375 32.5546875 C75.71293213 32.92161713 76.55477051 33.28854675 77.42211914 33.66659546 C83.27673399 36.22626494 89.09827907 38.85275484 94.91015625 41.5078125 C97.24078528 42.56481159 99.57203448 43.62042901 101.90353394 44.67550659 C103.36789529 45.3425994 104.82951483 46.01574879 106.28811646 46.69534302 C108.29219722 47.6287573 110.30476648 48.54088906 112.3203125 49.44921875 C114.01051514 50.22785278 114.01051514 50.22785278 115.73486328 51.0222168 C122.12111893 52.9346554 127.29639628 50.72648215 133.07421875 47.96484375 C133.74238113 47.65500549 134.41054352 47.34516724 135.09895325 47.02593994 C136.54208386 46.35572539 137.98333175 45.68144478 139.42285156 45.00350952 C143.34980505 43.15502402 147.29150001 41.33832623 151.23046875 39.515625 C152.04421967 39.13798508 152.85797058 38.76034515 153.69638062 38.3712616 C161.92594463 34.55650145 170.20566671 30.8588575 178.5 27.1875 C179.57859787 26.70976639 179.57859787 26.70976639 180.6789856 26.22238159 C183.67010327 24.89774792 186.66146699 23.57367514 189.65348816 22.25108337 C195.01688375 19.87994232 200.3760958 17.49952935 205.73358154 15.11506653 C209.71989262 13.34148433 213.70760052 11.57105765 217.69555664 9.80117798 C219.6415716 8.93681178 221.58705149 8.0712399 223.53198242 7.20443726 C226.24115683 5.99741893 228.95234373 4.79503889 231.6640625 3.59375 C232.47996857 3.22897049 233.29587463 2.86419098 234.13650513 2.48835754 C239.7719333 0 239.7719333 0 242 0 C242.0933465 7.22451141 242.16408832 14.44888938 242.20724869 21.67388535 C242.22798112 25.03012398 242.25824185 28.38563338 242.30175781 31.74169922 C242.35068783 35.61436659 242.3730637 39.48645316 242.390625 43.359375 C242.42159271 45.13667999 242.42159271 45.13667999 242.45318604 46.94989014 C242.4558446 56.98386309 240.38993161 65.47459903 235 74 C223.72262774 71.26277372 223.72262774 71.26277372 219.5625 69.75 C216.64008092 68.89465783 214.89248918 69.14926789 212 70 C212.50326226 76.4165938 214.18754956 82.05510268 216.2578125 88.14453125 C217 91 217 91 216 94 C213.92011448 95.53941892 211.90521158 96.8740787 209.6875 98.1875 C209.03177002 98.57824707 208.37604004 98.96899414 207.70043945 99.37158203 C192.12258983 108.32221112 174.58038242 113.71915399 157 117 C156.26974609 117.13970215 155.53949219 117.2794043 154.78710938 117.42333984 C113.08058134 125.14515518 65.02549043 119.64750141 29 96 C25.50154552 93.49831188 22.21472357 90.85566195 19 88 C18.29230469 87.37480469 17.58460938 86.74960937 16.85546875 86.10546875 C7.68987832 77.50067927 1.00823609 66.39624159 -0.35113525 53.7276001 C-0.45846003 50.26464249 -0.45098259 46.82342966 -0.390625 43.359375 C-0.38496521 42.11117981 -0.37930542 40.86298462 -0.37347412 39.57696533 C-0.35128471 35.63423468 -0.30111924 31.69245076 -0.25 27.75 C-0.22762653 25.05861687 -0.21139043 22.36720841 -0.1953125 19.67578125 C-0.1514771 13.11687062 -0.08474114 6.55850298 0 0 Z " fill="#FDFEFE" transform="translate(135,231)"/>
<path d="M0 0 C0.72445312 0.72832031 1.44890625 1.45664062 2.1953125 2.20703125 C26.34689533 26.25770218 55.58145055 38.48180249 89 44 C90.28519531 44.22558594 91.57039063 44.45117188 92.89453125 44.68359375 C116.95778782 48.33717721 143.391001 46.87677241 167 41 C167.7724707 40.80954102 168.54494141 40.61908203 169.34082031 40.42285156 C187.55412288 35.8252501 205.14897206 29.20635547 221 19 C223.00760722 23.88144091 224.97936287 28.77696653 226.75 33.75 C226.99234375 34.42546875 227.2346875 35.1009375 227.484375 35.796875 C228.17005216 38.72658648 228.35942351 40.99707451 228 44 C211.62800069 65.40953756 175.70457596 75.74461056 150.40625 79.3125 C140.78050926 80.38567701 131.11193809 80.36930971 121.4375 80.375 C120.08795731 80.37799103 120.08795731 80.37799103 118.71115112 80.38104248 C82.11753589 80.37186226 42.36872021 71.82799417 15.359375 45.41796875 C4.92679218 34.17357899 -0.2325138 23.55702213 -0.0625 8.125 C-0.05798828 7.34125 -0.05347656 6.5575 -0.04882812 5.75 C-0.03714093 3.83329986 -0.01920908 1.91663952 0 0 Z " fill="#FAFDFE" transform="translate(135,317)"/>
<path d="M0 0 C8.41651407 2.47511225 16.772416 5.13526378 25.125 7.81640625 C25.83044952 8.04284254 26.53589905 8.26927883 27.26272583 8.50257683 C30.98078054 9.69651685 34.69831632 10.89205911 38.41552734 12.08862305 C41.48510791 13.07633056 44.55578471 14.0605165 47.62744141 15.04174805 C51.35597925 16.23284188 55.08256214 17.42986633 58.80780029 18.63123894 C60.22334104 19.08664692 61.6395592 19.53995481 63.05645752 19.99112129 C65.02781026 20.61931575 66.99655489 21.25510392 68.96484375 21.89282227 C70.0849585 22.25239517 71.20507324 22.61196808 72.35913086 22.98243713 C75 24 75 24 77 26 C74.60512849 27.60561826 72.20914587 29.20953407 69.8125 30.8125 C69.13896484 31.26431641 68.46542969 31.71613281 67.77148438 32.18164062 C66.78051758 32.84389648 66.78051758 32.84389648 65.76953125 33.51953125 C64.80394287 34.17236084 64.80394287 34.17236084 63.81884766 34.83837891 C62 36 62 36 59.01171875 37.44921875 C56.72842913 38.88196707 56.72842913 38.88196707 56.27734375 41.7734375 C57.3249904 46.45103822 60.05322401 48.52495847 63.5625 51.625 C64.8038324 52.73010413 66.03493096 53.84684551 67.25390625 54.9765625 C67.80377197 55.46205566 68.3536377 55.94754883 68.92016602 56.44775391 C70 58 70 58 69.79638672 60.04150391 C68.63345563 62.90141598 66.75681318 64.60132854 64.5625 66.75 C63.75941406 67.54921875 62.95632813 68.3484375 62.12890625 69.171875 C60 71 60 71 58 71 C56.51953125 69.4609375 56.51953125 69.4609375 54.8125 67.375 C52.44371898 64.60731823 50.06460992 61.96008085 47.375 59.5 C46.84648437 59.0153125 46.31796875 58.530625 45.7734375 58.03125 C43.31479593 56.60155534 41.80922736 56.63455488 39 57 C37.11763389 58.83451719 37.11763389 58.83451719 35.66796875 61.375 C35.09755859 62.27734375 34.52714844 63.1796875 33.93945312 64.109375 C33.36130859 65.06328125 32.78316406 66.0171875 32.1875 67 C31.59001953 67.95390625 30.99253906 68.9078125 30.37695312 69.890625 C28.90173353 72.25097635 27.44389594 74.6204038 26 77 C23.48630165 74.78822388 22.47088806 73.07012263 21.5703125 69.859375 C21.33530029 69.04460693 21.10028809 68.22983887 20.8581543 67.39038086 C20.61621338 66.51905518 20.37427246 65.64772949 20.125 64.75 C19.59417048 62.91226198 19.06160696 61.07502397 18.52734375 59.23828125 C18.26679199 58.33674316 18.00624023 57.43520508 17.73779297 56.50634766 C16.00322796 50.61387765 13.97537301 44.81498188 12 39 C10.45170174 34.43971564 8.91183785 29.87665809 7.375 25.3125 C6.99045654 24.18384521 6.60591309 23.05519043 6.2097168 21.89233398 C3.77946444 14.66598941 1.7296496 7.42539077 0 0 Z " fill="#FAFDFE" transform="translate(357,310)"/>
<path d="M0 0 C5.89042166 0.26179652 11.33526483 2.26032308 16.9140625 4.0625 C19.6057174 4.88021794 22.23351521 5.50635216 25 6 C22 8 22 8 20 8 C20 8.66 20 9.32 20 10 C20.86625 10.12375 21.7325 10.2475 22.625 10.375 C25.89513853 10.98058121 28.87256899 11.88306035 32 13 C31.34 14.65 30.68 16.3 30 18 C22.74839665 16.180206 15.87619244 13.93841629 9 11 C9.4125 11.886875 9.825 12.77375 10.25 13.6875 C12.13297149 18.09277748 13.47438461 22.62801412 14.85546875 27.2109375 C16.08311003 31.27514242 17.34635531 35.3266169 18.625 39.375 C18.86677979 40.14062256 19.10855957 40.90624512 19.35766602 41.69506836 C21.95993749 49.9100192 24.60467177 58.11133861 27.25 66.3125 C27.47036926 66.99584412 27.69073853 67.67918823 27.91778564 68.38323975 C28.55414532 70.35588951 29.19101609 72.32837336 29.828125 74.30078125 C30.3835498 76.02035034 30.3835498 76.02035034 30.95019531 77.7746582 C31.95268217 80.85462422 32.97164413 83.92858569 34 87 C37.01930817 83.42156069 39.38829022 79.74807298 41.65625 75.671875 C43.33280847 73.58592435 44.40640978 73.4272387 47 73 C48.6744239 72.3530635 50.34302621 71.69040574 52 71 C52.99 72.485 52.99 72.485 54 74 C52.68 74 51.36 74 50 74 C48.33291147 75.73139637 48.33291147 75.73139637 47 78.0625 C46.484375 78.88878906 45.96875 79.71507812 45.4375 80.56640625 C43.95165329 83.08184782 42.49770739 85.6112368 41.0703125 88.16015625 C39.73200809 90.46067222 38.31897295 92.70178342 36.875 94.9375 C36.37742187 95.70964844 35.87984375 96.48179687 35.3671875 97.27734375 C34.91601562 97.84582031 34.46484375 98.41429687 34 99 C33.34 99 32.68 99 32 99 C31.29911844 97.25531628 30.61475991 95.50398839 29.9375 93.75 C29.55464844 92.77546875 29.17179687 91.8009375 28.77734375 90.796875 C27.98886213 87.95992605 27.97562188 86.70590448 29 84 C28.34 84 27.68 84 27 84 C26.87882812 83.39671875 26.75765625 82.7934375 26.6328125 82.171875 C26.46523438 81.37265625 26.29765625 80.5734375 26.125 79.75 C25.96257812 78.96109375 25.80015625 78.1721875 25.6328125 77.359375 C25.0051999 75.01938727 24.13654019 73.13101286 23 71 C22.32033324 69.33859237 21.65061095 67.67299959 21 66 C19.02 67.98 17.04 69.96 15 72 C14.34 71.67 13.68 71.34 13 71 C13.515625 70.64421875 14.03125 70.2884375 14.5625 69.921875 C16.32930258 67.99182945 16.32930258 67.99182945 15.8125 64.953125 C15.544375 63.73109375 15.27625 62.5090625 15 61.25 C14.85916992 60.59547852 14.71833984 59.94095703 14.57324219 59.26660156 C13.1597142 53.02624748 11.09322114 47.0470507 8.890625 41.046875 C8 38 8 38 9 35 C9.66 35 10.32 35 11 35 C10.855625 34.44570313 10.71125 33.89140625 10.5625 33.3203125 C10.376875 32.59585938 10.19125 31.87140625 10 31.125 C9.814375 30.40570313 9.62875 29.68640625 9.4375 28.9453125 C9 27 9 27 9 25 C8.67 24.34 8.34 23.68 8 23 C5.48916886 24.25541557 5.12874554 25.50063488 4 28 C2.68 27.67 1.36 27.34 0 27 C0.99 26.34 1.98 25.68 3 25 C1.14904833 17.21170401 1.14904833 17.21170401 -1.1875 9.5625 C-2.04642174 6.85359298 -2.31355058 4.82195521 -2 2 C-1.34 1.34 -0.68 0.68 0 0 Z " fill="#2F8FC7" transform="translate(348,299)"/>
<path d="M0 0 C0.70125 0.20496094 1.4025 0.40992188 2.125 0.62109375 C8.47970854 2.45186342 8.47970854 2.45186342 15 3.4375 C20.27924439 3.94342759 25.10416757 6.06506623 30 8 C29 11 29 11 26.76953125 12.2890625 C25.79371094 12.72992188 24.81789063 13.17078125 23.8125 13.625 C16.4546411 17.13127211 9.77543923 21.48972241 3 26 C3.30679687 26.61359375 3.61359375 27.2271875 3.9296875 27.859375 C4.953125 29.90625 5.9765625 31.953125 7 34 C7.66 34 8.32 34 9 34 C9 34.66 9 35.32 9 36 C9.53625 36.226875 10.0725 36.45375 10.625 36.6875 C13.78500863 38.43382056 16.2676983 40.6402849 19 43 C18.42619828 46.66377743 17.02730342 48.32767225 14.40234375 50.890625 C13.32436523 51.95410156 13.32436523 51.95410156 12.22460938 53.0390625 C11.46986328 53.76867187 10.71511719 54.49828125 9.9375 55.25 C8.79958008 56.36761719 8.79958008 56.36761719 7.63867188 57.5078125 C5.76567793 59.34546694 3.88604389 61.17575724 2 63 C0.82780457 62.21654285 -0.33763668 61.42297164 -1.5 60.625 C-2.1496875 60.18414062 -2.799375 59.74328125 -3.46875 59.2890625 C-4.22671875 58.65097656 -4.22671875 58.65097656 -5 58 C-5 57.34 -5 56.68 -5 56 C-6.485 55.505 -6.485 55.505 -8 55 C-11.04566418 52.25147379 -13.4411666 49.82622743 -15 46 C-15.763125 46.309375 -16.52625 46.61875 -17.3125 46.9375 C-19.18789677 47.67893593 -21.08684652 48.36228217 -23 49 C-21.87548273 46.0280615 -20.77706209 43.66559313 -19 41 C-12.44166209 41.27291948 -9.80376519 43.35565643 -5.5625 47.9375 C-5.02173828 48.48857422 -4.48097656 49.03964844 -3.92382812 49.60742188 C0 53.68998894 0 53.68998894 0 56 C1.27200971 54.89718873 2.54255853 53.79269231 3.8125 52.6875 C4.52019531 52.07261719 5.22789062 51.45773437 5.95703125 50.82421875 C6.63121094 50.22222656 7.30539062 49.62023437 8 49 C8.60199219 48.51144531 9.20398438 48.02289063 9.82421875 47.51953125 C10.21222656 47.01808594 10.60023438 46.51664062 11 46 C10.29851194 40.74685654 5.9731924 37.93193695 2.21679688 34.59765625 C1.67990234 34.09363281 1.14300781 33.58960938 0.58984375 33.0703125 C0.09347412 32.62445801 -0.40289551 32.17860352 -0.91430664 31.71923828 C-2.61201662 29.03084753 -2.44602979 27.09694271 -2 24 C-0.1640625 22.12548828 -0.1640625 22.12548828 2.375 20.5703125 C3.72851562 19.71953125 3.72851562 19.71953125 5.109375 18.8515625 C6.06328125 18.28179687 7.0171875 17.71203125 8 17.125 C8.95390625 16.53203125 9.9078125 15.9390625 10.890625 15.328125 C13.24926144 13.86577041 15.61839433 12.42452956 18 11 C16.42990983 10.36923795 14.85954252 9.73916575 13.2890625 9.109375 C11.97736084 8.5829541 11.97736084 8.5829541 10.63916016 8.04589844 C7.110438 6.64746683 3.559369 5.31828481 0 4 C0 2.68 0 1.36 0 0 Z " fill="#3178B3" transform="translate(415,325)"/>
<path d="M0 0 C5.84480002 0.58754703 10.72244418 2.83893829 16.03515625 5.18359375 C16.99143417 5.59916031 17.9477121 6.01472687 18.93296814 6.44288635 C21.9789401 7.76811858 25.02077648 9.10254942 28.0625 10.4375 C31.10867409 11.76678772 34.15565534 13.09421121 37.20274353 14.42140198 C39.09553284 15.24666454 40.98762297 16.07353308 42.87892151 16.90220642 C43.74009079 17.27922195 44.60126007 17.65623749 45.48852539 18.04467773 C46.24098038 18.37475327 46.99343536 18.7048288 47.76869202 19.04490662 C50.16395303 20.07017877 52.57742877 21.04126103 55 22 C54.34 22.66 53.68 23.32 53 24 C52.29875 23.67386719 51.5975 23.34773438 50.875 23.01171875 C46.07644942 20.80151679 41.31319711 18.72750039 36.33984375 16.9375 C33.09870877 15.63888164 29.96385252 14.12481403 26.8125 12.625 C20.94014468 9.83241777 15.0143415 7.37461131 8.90234375 5.140625 C5.8309044 3.9335452 2.93010531 2.51512132 0 1 C0 0.67 0 0.34 0 0 Z " fill="#3B6EA4" transform="translate(55,181)"/>
<path d="M0 0 C0.66 0 1.32 0 2 0 C3.03990993 2.84844895 4.05695271 5.70192978 5.0625 8.5625 C5.35705078 9.36236328 5.65160156 10.16222656 5.95507812 10.98632812 C7.7510089 16.16283447 8.25805464 19.64428166 7 25 C3.95860461 21.95860461 3.15855289 18.21298995 1.8125 14.1875 C1.52697266 13.37990234 1.24144531 12.57230469 0.94726562 11.74023438 C-1.53355787 4.3701967 -1.53355787 4.3701967 0 0 Z " fill="#2B8EC5" transform="translate(358,335)"/>
<path d="M0 0 C1.32 0.66 2.64 1.32 4 2 C3.40058594 2.07476562 2.80117188 2.14953125 2.18359375 2.2265625 C-0.76853604 3.27221849 -1.37628633 4.70234059 -2.9375 7.375 C-5.24019147 11.03494539 -6.96133499 13.19322881 -11 15 C-12.33526989 15.66277942 -13.66892078 16.32884402 -15 17 C-14.06915029 15.22566188 -13.13005387 13.45564851 -12.1875 11.6875 C-11.40439453 10.20830078 -11.40439453 10.20830078 -10.60546875 8.69921875 C-7.97057749 4.26926776 -5.80096817 2.76877775 -1 1 C-0.67 0.67 -0.34 0.34 0 0 Z " fill="#3385BD" transform="translate(398,370)"/>
<path d="M0 0 C14.19 0.33 28.38 0.66 43 1 C43 1.33 43 1.66 43 2 C35.62368084 2.97777295 28.37395679 3.18325302 20.9375 3.1875 C19.23883789 3.20586914 19.23883789 3.20586914 17.50585938 3.22460938 C11.30459995 3.23544442 5.93210454 2.83699198 0 1 C0 0.67 0 0.34 0 0 Z " fill="#4286B9" transform="translate(232,361)"/>
<path d="M0 0 C7.29031024 -0.2494783 13.90673679 0.27669093 21 2 C20.34 3.65 19.68 5.3 19 7 C12.51292846 5.3186083 6.2322365 3.46937673 0 1 C0 0.67 0 0.34 0 0 Z " fill="#348CC0" transform="translate(359,310)"/>
<path d="M0 0 C5.89042166 0.26179652 11.33526483 2.26032308 16.9140625 4.0625 C19.6057174 4.88021794 22.23351521 5.50635216 25 6 C22.04592092 7.96938605 20.44788617 8.56901423 17 9 C16.01 8.67 15.02 8.34 14 8 C14 7.01 14 6.02 14 5 C7.08840962 3.27071163 7.08840962 3.27071163 0 3 C-0.66 4.32 -1.32 5.64 -2 7 C-2.125 4.625 -2.125 4.625 -2 2 C-1.34 1.34 -0.68 0.68 0 0 Z M3 3 C5 4 5 4 5 4 Z " fill="#388FC0" transform="translate(348,299)"/>
<path d="M0 0 C2.17766075 4.35532149 2.03039555 5.46625958 1 10 C1.62648438 10.12117188 2.25296875 10.24234375 2.8984375 10.3671875 C4.12433594 10.61855469 4.12433594 10.61855469 5.375 10.875 C6.18710937 11.03742188 6.99921875 11.19984375 7.8359375 11.3671875 C10 12 10 12 12 14 C11.34 14 10.68 14 10 14 C10 14.66 10 15.32 10 16 C7.08517222 16.80967438 5.53886783 17.21845993 2.6875 16.0625 C2.130625 15.711875 1.57375 15.36125 1 15 C1.33 14.01 1.66 13.02 2 12 C0.68 11.01 -0.64 10.02 -2 9 C-1.34 9 -0.68 9 0 9 C0 6.03 0 3.06 0 0 Z " fill="#348AC2" transform="translate(383,304)"/>
<path d="M0 0 C3.96 0.99 3.96 0.99 8 2 C8.33 3.98 8.66 5.96 9 8 C5.37 7.01 1.74 6.02 -2 5 C-1.34 3.35 -0.68 1.7 0 0 Z " fill="#3880B6" transform="translate(400,319)"/>
<path d="M0 0 C2 1 2 1 3.0703125 3.65234375 C3.59238281 5.27849609 3.59238281 5.27849609 4.125 6.9375 C4.47820312 8.01902344 4.83140625 9.10054688 5.1953125 10.21484375 C6 13 6 13 6 15 C5.34 15 4.68 15 4 15 C3.34 13.02 2.68 11.04 2 9 C1.34 9 0.68 9 0 9 C-1.10844919 5.67465243 -0.84454356 3.37817425 0 0 Z " fill="#428FBF" transform="translate(373,363)"/>
<path d="M0 0 C0.99 0.495 0.99 0.495 2 1 C2.73075648 3.3140622 3.40138258 5.64828869 4 8 C4.66 7.67 5.32 7.34 6 7 C6.95685425 11.21015871 7.13181214 13.25712373 5 17 C4.16080602 14.73117913 3.32848276 12.46022973 2.5 10.1875 C2.26152344 9.54490234 2.02304687 8.90230469 1.77734375 8.24023438 C0.72931254 5.35066261 0 3.09923939 0 0 Z " fill="#308ABD" transform="translate(359,343)"/>
<path d="M0 0 C3.96 0.99 3.96 0.99 8 2 C4.73454239 3.88391785 1.71888239 4.49287967 -2 5 C-1.34 3.35 -0.68 1.7 0 0 Z " fill="#3183BF" transform="translate(400,319)"/>
<path d="M0 0 C2.475 0.495 2.475 0.495 5 1 C4.01 1.33 3.02 1.66 2 2 C2.66 5.3 3.32 8.6 4 12 C1.49484216 9.49484216 0.94900914 7.38931835 0 4 C0 2.68 0 1.36 0 0 Z " fill="#329BD3" transform="translate(350,303)"/>
<path d="M0 0 C-0.33 0.99 -0.66 1.98 -1 3 C-4.5625 4.1875 -4.5625 4.1875 -8 5 C-8.33 4.34 -8.66 3.68 -9 3 C-2.25 0 -2.25 0 0 0 Z " fill="#3E8FC0" transform="translate(425,194)"/>
<path d="M0 0 C3.3 0.99 6.6 1.98 10 3 C6.29847322 3.92538169 5.36541838 4.08174162 2 3 C1.67 3.66 1.34 4.32 1 5 C0.67 3.35 0.34 1.7 0 0 Z " fill="#BCE8F8" transform="translate(357,310)"/>
<path d="M0 0 C3.25 -0.25 3.25 -0.25 7 0 C8.32 1.32 9.64 2.64 11 4 C7.37 3.01 3.74 2.02 0 1 C0 0.67 0 0.34 0 0 Z " fill="#CBECF8" transform="translate(352,299)"/>
<path d="M0 0 C2.64 0 5.28 0 8 0 C8 0.66 8 1.32 8 2 C8.66 2.33 9.32 2.66 10 3 C3.375 2.25 3.375 2.25 0 0 Z " fill="#D1E8F4" transform="translate(195,341)"/>
<path d="M0 0 C2 1 2 1 2 1 Z " fill="#296CAF" transform="translate(255,482)"/>
<path d="M0 0 C2 1 2 1 2 1 Z " fill="#2D6BAA" transform="translate(257,481)"/>
<path d="M0 0 C2 1 2 1 2 1 Z " fill="#2C6DAB" transform="translate(253,481)"/>
<path d="M0 0 C2 1 2 1 2 1 Z " fill="#276BB0" transform="translate(259,480)"/>
<path d="M0 0 C2 1 2 1 2 1 Z " fill="#296CAF" transform="translate(251,480)"/>
<path d="M0 0 C2 1 2 1 2 1 Z " fill="#296DB1" transform="translate(268,476)"/>
<path d="M0 0 C2 1 2 1 2 1 Z " fill="#286CB0" transform="translate(242,476)"/>
<path d="M0 0 C2 1 2 1 2 1 Z " fill="#2C69A8" transform="translate(226,469)"/>
<path d="M0 0 C2 1 2 1 2 1 Z " fill="#2C71AF" transform="translate(302,461)"/>
<path d="M0 0 C2 1 2 1 2 1 Z " fill="#2969A9" transform="translate(208,461)"/>
<path d="M0 0 C2 1 2 1 2 1 Z " fill="#2F70B5" transform="translate(316,455)"/>
<path d="M0 0 C2 1 2 1 2 1 Z " fill="#2874B5" transform="translate(318,454)"/>
<path d="M0 0 C2 1 2 1 2 1 Z " fill="#2C71AF" transform="translate(325,451)"/>
<path d="M0 0 C2 1 2 1 2 1 Z " fill="#2975B6" transform="translate(327,450)"/>
<path d="M0 0 C2 1 2 1 2 1 Z " fill="#2B68AA" transform="translate(149,435)"/>
<path d="M0 0 C2 1 2 1 2 1 Z " fill="#297ABB" transform="translate(386,424)"/>
<path d="M0 0 C2 1 2 1 2 1 Z " fill="#2865AA" transform="translate(101,414)"/>
<path d="M0 0 C2 1 2 1 2 1 Z " fill="#2B7EB8" transform="translate(443,399)"/>
<path d="" fill="#278AC6" transform="translate(0,0)"/>
<path d="" fill="#2A64AA" transform="translate(0,0)"/>
<path d="M0 0 C2 1 2 1 2 1 Z " fill="#2990CD" transform="translate(489,177)"/>
<path d="M0 0 C2 1 2 1 2 1 Z " fill="#2965AB" transform="translate(21,177)"/>
<path d="M0 0 C2 1 2 1 2 1 Z " fill="#308FC5" transform="translate(469,168)"/>
<path d="M0 0 C2 1 2 1 2 1 Z " fill="#2B93C9" transform="translate(443,112)"/>
<path d="M0 0 C2 1 2 1 2 1 Z " fill="#2B7BB8" transform="translate(99,98)"/>
<path d="M0 0 C2 1 2 1 2 1 Z " fill="#287DBF" transform="translate(101,97)"/>
<path d="M0 0 C2 1 2 1 2 1 Z " fill="#2690CC" transform="translate(386,87)"/>
<path d="M0 0 C2 1 2 1 2 1 Z " fill="#2881BC" transform="translate(149,76)"/>
<path d="M0 0 C2 1 2 1 2 1 Z " fill="#2590CA" transform="translate(327,61)"/>
<path d="M0 0 C2 1 2 1 2 1 Z " fill="#2A8FC3" transform="translate(325,60)"/>
<path d="M0 0 C2 1 2 1 2 1 Z " fill="#2490C9" transform="translate(318,57)"/>
<path d="M0 0 C2 1 2 1 2 1 Z " fill="#338DBB" transform="translate(316,56)"/>
<path d="M0 0 C2 1 2 1 2 1 Z " fill="#248FC7" transform="translate(302,50)"/>
<path d="M0 0 C2 1 2 1 2 1 Z " fill="#2A8AC2" transform="translate(208,50)"/>
<path d="M0 0 C2 1 2 1 2 1 Z " fill="#2E88C0" transform="translate(226,42)"/>
<path d="M0 0 C2 1 2 1 2 1 Z " fill="#268EC9" transform="translate(268,35)"/>
<path d="M0 0 C2 1 2 1 2 1 Z " fill="#268CC6" transform="translate(242,35)"/>
<path d="M0 0 C2 1 2 1 2 1 Z " fill="#268DCA" transform="translate(259,31)"/>
<path d="M0 0 C2 1 2 1 2 1 Z " fill="#288CC8" transform="translate(251,31)"/>
<path d="M0 0 C2 1 2 1 2 1 Z " fill="#2C8AC3" transform="translate(257,30)"/>
<path d="M0 0 C2 1 2 1 2 1 Z " fill="#2E8BC3" transform="translate(253,30)"/>
<path d="M0 0 C2 1 2 1 2 1 Z " fill="#278DC8" transform="translate(255,29)"/>
<path d="" fill="#2F7FB8" transform="translate(0,0)"/>
<path d="" fill="#2D62A2" transform="translate(0,0)"/>
<path d="" fill="#3191C5" transform="translate(0,0)"/>
<path d="" fill="#3076B2" transform="translate(0,0)"/>
</svg>
